<?xml version="1.0" encoding="UTF-8" standalone="no"?>
<!DOCTYPE svg PUBLIC "-//W3C//DTD SVG 1.1//EN"
 "http://www.w3.org/Graphics/SVG/1.1/DTD/svg11.dtd">
<!-- Generated by graphviz version 2.40.1 (20161225.0304)
 -->
<!-- Title: %3 Pages: 1 -->
<svg width="614pt" height="279pt"
 viewBox="0.00 0.00 614.00 279.00" xmlns="http://www.w3.org/2000/svg" xmlns:xlink="http://www.w3.org/1999/xlink">
<g id="graph0" class="graph" transform="scale(1 1) rotate(0) translate(4 275)">
<title>%3</title>
<polygon fill="#f6f6f6" stroke="transparent" points="-4,4 -4,-275 610,-275 610,4 -4,4"/>
<g id="clust1" class="cluster">
<title>cluster_192.168.7.219</title>
<polygon fill="#eceff1" stroke="#000000" points="8,-8 8,-263 598,-263 598,-8 8,-8"/>
<text text-anchor="middle" x="303" y="-247.8" font-family="Times,serif" font-size="14.00" fill="#000000">192.168.7.219</text>
</g>
<g id="clust2" class="cluster">
<title>cluster_namespace_default</title>
<polygon fill="#e3f2fd" stroke="#000000" points="16,-16 16,-232 590,-232 590,-16 16,-16"/>
<text text-anchor="middle" x="303" y="-216.8" font-family="Times,serif" font-size="14.00" fill="#000000">default</text>
</g>
<!-- 43703f26&#45;2b72&#45;4a27&#45;800e&#45;58f89e20fbfc -->
<g id="node1" class="node">
<title>43703f26&#45;2b72&#45;4a27&#45;800e&#45;58f89e20fbfc</title>
<polygon fill="#ffffff" stroke="#d3d3d3" points="275.5,-89 275.5,-135 447.5,-135 447.5,-89 275.5,-89"/>
<text text-anchor="start" x="283.5" y="-119.8" font-family="Times,serif" font-size="14.00" fill="#000000">Pod</text>
<polyline fill="none" stroke="#d3d3d3" points="275.5,-112 447.5,-112 "/>
<text text-anchor="start" x="283.5" y="-96.8" font-family="Times,serif" font-size="14.00" fill="#000000">whoami&#45;658d568b94&#45;lxvmc</text>
</g>
<!-- f0ddb31b&#45;77a2&#45;b88d&#45;2749&#45;2c96d53d0329 -->
<g id="node8" class="node">
<title>f0ddb31b&#45;77a2&#45;b88d&#45;2749&#45;2c96d53d0329</title>
<polygon fill="#ffffff" stroke="#d3d3d3" points="512,-89 512,-135 582,-135 582,-89 512,-89"/>
<text text-anchor="start" x="520" y="-119.8" font-family="Times,serif" font-size="14.00" fill="#000000">Container</text>
<polyline fill="none" stroke="#d3d3d3" points="512,-112 582,-112 "/>
<text text-anchor="start" x="520" y="-96.8" font-family="Times,serif" font-size="14.00" fill="#000000">whoami</text>
</g>
<!-- 43703f26&#45;2b72&#45;4a27&#45;800e&#45;58f89e20fbfc&#45;&gt;f0ddb31b&#45;77a2&#45;b88d&#45;2749&#45;2c96d53d0329 -->
<g id="edge1" class="edge">
<title>43703f26&#45;2b72&#45;4a27&#45;800e&#45;58f89e20fbfc&#45;&gt;f0ddb31b&#45;77a2&#45;b88d&#45;2749&#45;2c96d53d0329</title>
<path fill="none" stroke="#4284f3" d="M447.7333,-112C466.3603,-112 485.3396,-112 501.6462,-112"/>
<polygon fill="#4284f3" stroke="#4284f3" points="501.9454,-115.5001 511.9454,-112 501.9453,-108.5001 501.9454,-115.5001"/>
</g>
<!-- 58d42049&#45;d049&#45;43cc&#45;8dce&#45;fe47437e3a37 -->
<g id="node2" class="node">
<title>58d42049&#45;d049&#45;43cc&#45;8dce&#45;fe47437e3a37</title>
<polygon fill="#ffffff" stroke="#d3d3d3" points="247,-24 247,-70 476,-70 476,-24 247,-24"/>
<text text-anchor="start" x="255" y="-54.8" font-family="Times,serif" font-size="14.00" fill="#000000">Pod</text>
<polyline fill="none" stroke="#d3d3d3" points="247,-47 476,-47 "/>
<text text-anchor="start" x="255" y="-31.8" font-family="Times,serif" font-size="14.00" fill="#000000">kuard&#45;deployment&#45;8469589c7c&#45;9cvmp</text>
</g>
<!-- 58ea2549&#45;6a6c&#45;711c&#45;c7c3&#45;cee2cfe370a4 -->
<g id="node3" class="node">
<title>58ea2549&#45;6a6c&#45;711c&#45;c7c3&#45;cee2cfe370a4</title>
<polygon fill="#ffffff" stroke="#d3d3d3" points="512,-24 512,-70 582,-70 582,-24 512,-24"/>
<text text-anchor="start" x="520" y="-54.8" font-family="Times,serif" font-size="14.00" fill="#000000">Container</text>
<polyline fill="none" stroke="#d3d3d3" points="512,-47 582,-47 "/>
<text text-anchor="start" x="520" y="-31.8" font-family="Times,serif" font-size="14.00" fill="#000000">kuard</text>
</g>
<!-- 58d42049&#45;d049&#45;43cc&#45;8dce&#45;fe47437e3a37&#45;&gt;58ea2549&#45;6a6c&#45;711c&#45;c7c3&#45;cee2cfe370a4 -->
<g id="edge2" class="edge">
<title>58d42049&#45;d049&#45;43cc&#45;8dce&#45;fe47437e3a37&#45;&gt;58ea2549&#45;6a6c&#45;711c&#45;c7c3&#45;cee2cfe370a4</title>
<path fill="none" stroke="#4284f3" d="M476.0764,-47C485.0702,-47 493.7737,-47 501.8219,-47"/>
<polygon fill="#4284f3" stroke="#4284f3" points="501.994,-50.5001 511.9939,-47 501.9939,-43.5001 501.994,-50.5001"/>
</g>
<!-- 9ec215e2&#45;2cea&#45;6151&#45;e681&#45;fa788d1ca0ff -->
<g id="node4" class="node">
<title>9ec215e2&#45;2cea&#45;6151&#45;e681&#45;fa788d1ca0ff</title>
<polygon fill="#ffffff" stroke="#d3d3d3" points="512,-154 512,-200 582,-200 582,-154 512,-154"/>
<text text-anchor="start" x="520" y="-184.8" font-family="Times,serif" font-size="14.00" fill="#000000">Container</text>
<polyline fill="none" stroke="#d3d3d3" points="512,-177 582,-177 "/>
<text text-anchor="start" x="520" y="-161.8" font-family="Times,serif" font-size="14.00" fill="#000000">whoami</text>
</g>
<!-- d83ed250&#45;0eb8&#45;4362&#45;94df&#45;49ab18f3b8ca -->
<g id="node5" class="node">
<title>d83ed250&#45;0eb8&#45;4362&#45;94df&#45;49ab18f3b8ca</title>
<polygon fill="#ffffff" stroke="#d3d3d3" points="277.5,-154 277.5,-200 445.5,-200 445.5,-154 277.5,-154"/>
<text text-anchor="start" x="285.5" y="-184.8" font-family="Times,serif" font-size="14.00" fill="#000000">Pod</text>
<polyline fill="none" stroke="#d3d3d3" points="277.5,-177 445.5,-177 "/>
<text text-anchor="start" x="285.5" y="-161.8" font-family="Times,serif" font-size="14.00" fill="#000000">whoami&#45;658d568b94&#45;fvbch</text>
</g>
<!-- d83ed250&#45;0eb8&#45;4362&#45;94df&#45;49ab18f3b8ca&#45;&gt;9ec215e2&#45;2cea&#45;6151&#45;e681&#45;fa788d1ca0ff -->
<g id="edge3" class="edge">
<title>d83ed250&#45;0eb8&#45;4362&#45;94df&#45;49ab18f3b8ca&#45;&gt;9ec215e2&#45;2cea&#45;6151&#45;e681&#45;fa788d1ca0ff</title>
<path fill="none" stroke="#4284f3" d="M445.566,-177C464.936,-177 484.8156,-177 501.7856,-177"/>
<polygon fill="#4284f3" stroke="#4284f3" points="501.9454,-180.5001 511.9454,-177 501.9453,-173.5001 501.9454,-180.5001"/>
</g>
<!-- d912c787&#45;d35b&#45;4534&#45;a2f0&#45;9181ac0587cf -->
<g id="node6" class="node">
<title>d912c787&#45;d35b&#45;4534&#45;a2f0&#45;9181ac0587cf</title>
<polygon fill="#ffffff" stroke="#d3d3d3" points="51,-121 51,-167 184,-167 184,-121 51,-121"/>
<text text-anchor="start" x="59" y="-151.8" font-family="Times,serif" font-size="14.00" fill="#000000">ReplicaSet</text>
<polyline fill="none" stroke="#d3d3d3" points="51,-144 184,-144 "/>
<text text-anchor="start" x="59" y="-128.8" font-family="Times,serif" font-size="14.00" fill="#000000">whoami&#45;658d568b94</text>
</g>
<!-- d912c787&#45;d35b&#45;4534&#45;a2f0&#45;9181ac0587cf&#45;&gt;43703f26&#45;2b72&#45;4a27&#45;800e&#45;58f89e20fbfc -->
<g id="edge5" class="edge">
<title>d912c787&#45;d35b&#45;4534&#45;a2f0&#45;9181ac0587cf&#45;&gt;43703f26&#45;2b72&#45;4a27&#45;800e&#45;58f89e20fbfc</title>
<path fill="none" stroke="#4284f3" d="M184.1741,-135.2559C209.0724,-131.9905 237.8712,-128.2136 264.9245,-124.6656"/>
<polygon fill="#4284f3" stroke="#4284f3" points="265.7358,-128.0893 275.1958,-123.3186 264.8255,-121.1487 265.7358,-128.0893"/>
</g>
<!-- d912c787&#45;d35b&#45;4534&#45;a2f0&#45;9181ac0587cf&#45;&gt;d83ed250&#45;0eb8&#45;4362&#45;94df&#45;49ab18f3b8ca -->
<g id="edge4" class="edge">
<title>d912c787&#45;d35b&#45;4534&#45;a2f0&#45;9181ac0587cf&#45;&gt;d83ed250&#45;0eb8&#45;4362&#45;94df&#45;49ab18f3b8ca</title>
<path fill="none" stroke="#4284f3" d="M184.1741,-153.0174C209.8104,-156.4846 239.5819,-160.5111 267.3255,-164.2633"/>
<polygon fill="#4284f3" stroke="#4284f3" points="267.0648,-167.7598 277.4437,-165.6317 268.003,-160.823 267.0648,-167.7598"/>
</g>
<!-- e8bf7e37&#45;dd49&#45;4de8&#45;bc32&#45;1f3f25e0eaa7 -->
<g id="node7" class="node">
<title>e8bf7e37&#45;dd49&#45;4de8&#45;bc32&#45;1f3f25e0eaa7</title>
<polygon fill="#ffffff" stroke="#d3d3d3" points="24,-24 24,-70 211,-70 211,-24 24,-24"/>
<text text-anchor="start" x="32" y="-54.8" font-family="Times,serif" font-size="14.00" fill="#000000">ReplicaSet</text>
<polyline fill="none" stroke="#d3d3d3" points="24,-47 211,-47 "/>
<text text-anchor="start" x="32" y="-31.8" font-family="Times,serif" font-size="14.00" fill="#000000">kuard&#45;deployment&#45;8469589c7c</text>
</g>
<!-- e8bf7e37&#45;dd49&#45;4de8&#45;bc32&#45;1f3f25e0eaa7&#45;&gt;58d42049&#45;d049&#45;43cc&#45;8dce&#45;fe47437e3a37 -->
<g id="edge6" class="edge">
<title>e8bf7e37&#45;dd49&#45;4de8&#45;bc32&#45;1f3f25e0eaa7&#45;&gt;58d42049&#45;d049&#45;43cc&#45;8dce&#45;fe47437e3a37</title>
<path fill="none" stroke="#4284f3" d="M211.1389,-47C219.5427,-47 228.1366,-47 236.7487,-47"/>
<polygon fill="#4284f3" stroke="#4284f3" points="236.8567,-50.5001 246.8567,-47 236.8567,-43.5001 236.8567,-50.5001"/>
</g>
</g>
</svg>
